<svg width="1930" height="1956" viewBox="0 0 1930 1956" fill="none" xmlns="http://www.w3.org/2000/svg">
<g filter="url(#filter0_d_723_284)">
<path d="M4.76562 1180V-6.67572e-05H64.7656V1180H4.76562ZM124.766 1180V-6.67572e-05H304.766V1180H124.766ZM364.766 1180V-6.67572e-05H484.766V1180H364.766ZM178.766 1354H220.766L334.766 1582L450.766 1354H490.766V1818H440.766V1468L340.766 1656H320.766L226.766 1470V1818H178.766V1354ZM664.922 1180V-6.67572e-05H784.922V1180H664.922ZM844.922 1180V-6.67572e-05H964.922V1180H844.922ZM1024.92 1180V-6.67572e-05H1264.92V1180H1024.92ZM1138.92 1478C1134.92 1498 1130.26 1518 1124.92 1538C1118.26 1558 1109.59 1584.67 1098.92 1618L1012.92 1856C1002.26 1888 987.589 1911.33 968.922 1926C950.255 1940.67 928.255 1948 902.922 1948C870.922 1948 844.922 1938 824.922 1918L848.922 1882L852.922 1876L856.922 1878C858.255 1883.33 860.255 1887.33 862.922 1890C865.589 1894 870.255 1897.33 876.922 1900C886.255 1902.67 896.255 1904 906.922 1904C924.255 1904 938.922 1897.33 950.922 1884C961.589 1870.67 972.255 1849.33 982.922 1820L842.922 1478H898.922L1004.92 1750L1048.92 1614C1059.59 1579.33 1067.59 1553.33 1072.92 1536C1078.26 1517.33 1082.26 1498 1084.92 1478H1138.92Z" fill="#07C4FF"/>
<path d="M1325.08 1180V-6.67572e-05H1385.08V1180H1325.08ZM1565.08 1180V-6.67572e-05H1685.08V1180H1565.08ZM1865.08 1180V-6.67572e-05H1925.08V1180H1865.08ZM1527.08 1354H1793.08V1400H1579.08V1546H1753.08V1590H1579.08V1818H1527.08V1354Z" fill="#FAD826"/>
</g>
<defs>
<filter id="filter0_d_723_284" x="0.765625" y="0" width="1928.31" height="1956" filterUnits="userSpaceOnUse" color-interpolation-filters="sRGB">
<feFlood flood-opacity="0" result="BackgroundImageFix"/>
<feColorMatrix in="SourceAlpha" type="matrix" values="0 0 0 0 0 0 0 0 0 0 0 0 0 0 0 0 0 0 127 0" result="hardAlpha"/>
<feOffset dy="4"/>
<feGaussianBlur stdDeviation="2"/>
<feComposite in2="hardAlpha" operator="out"/>
<feColorMatrix type="matrix" values="0 0 0 0 0 0 0 0 0 0 0 0 0 0 0 0 0 0 0.25 0"/>
<feBlend mode="normal" in2="BackgroundImageFix" result="effect1_dropShadow_723_284"/>
<feBlend mode="normal" in="SourceGraphic" in2="effect1_dropShadow_723_284" result="shape"/>
</filter>
</defs>
</svg>
