<?xml version="1.0" encoding="UTF-8"?>
<!DOCTYPE svg PUBLIC "-//W3C//DTD SVG 1.1//EN" "http://www.w3.org/Graphics/SVG/1.1/DTD/svg11.dtd">
<svg xmlns="http://www.w3.org/2000/svg" version="1.1" width="410px" height="410px" style="shape-rendering:geometricPrecision; text-rendering:geometricPrecision; image-rendering:optimizeQuality; fill-rule:evenodd; clip-rule:evenodd" xmlns:xlink="http://www.w3.org/1999/xlink">
<g><path style="opacity:1" fill="#06c3fe" d="M -0.5,0.5 C -0.5,0.166667 -0.5,-0.166667 -0.5,-0.5C 4.5,-0.5 9.5,-0.5 14.5,-0.5C 14.5,-0.166667 14.5,0.166667 14.5,0.5C 13.5007,82.3316 13.1674,164.332 13.5,246.5C 9.16667,246.5 4.83333,246.5 0.5,246.5C 0.83265,164.332 0.499316,82.3316 -0.5,0.5 Z"/></g>
<g><path style="opacity:1" fill="#06c3fe" d="M 25.5,-0.5 C 38.8333,-0.5 52.1667,-0.5 65.5,-0.5C 65.5,-0.166667 65.5,0.166667 65.5,0.5C 64.5007,82.3316 64.1674,164.332 64.5,246.5C 51.5,246.5 38.5,246.5 25.5,246.5C 25.5,164.167 25.5,81.8333 25.5,-0.5 Z"/></g>
<g><path style="opacity:1" fill="#06c3fe" d="M 76.5,-0.5 C 85.5,-0.5 94.5,-0.5 103.5,-0.5C 103.5,-0.166667 103.5,0.166667 103.5,0.5C 102.501,82.3316 102.167,164.332 102.5,246.5C 93.8333,246.5 85.1667,246.5 76.5,246.5C 76.5,164.167 76.5,81.8333 76.5,-0.5 Z"/></g>
<g><path style="opacity:1" fill="#06c3fe" d="M 139.5,0.5 C 139.5,0.166667 139.5,-0.166667 139.5,-0.5C 148.833,-0.5 158.167,-0.5 167.5,-0.5C 167.5,-0.166667 167.5,0.166667 167.5,0.5C 166.501,82.3316 166.167,164.332 166.5,246.5C 157.833,246.5 149.167,246.5 140.5,246.5C 140.833,164.332 140.499,82.3316 139.5,0.5 Z"/></g>
<g><path style="opacity:1" fill="#06c3fe" d="M 178.5,-0.5 C 187.5,-0.5 196.5,-0.5 205.5,-0.5C 205.5,-0.166667 205.5,0.166667 205.5,0.5C 204.501,82.3316 204.167,164.332 204.5,246.5C 195.833,246.5 187.167,246.5 178.5,246.5C 178.5,164.167 178.5,81.8333 178.5,-0.5 Z"/></g>
<g><path style="opacity:1" fill="#06c3fe" d="M 216.5,-0.5 C 233.833,-0.5 251.167,-0.5 268.5,-0.5C 268.5,82.1667 268.5,164.833 268.5,247.5C 251.167,247.5 233.833,247.5 216.5,247.5C 216.5,164.833 216.5,82.1667 216.5,-0.5 Z"/></g>
<g><path style="opacity:1" fill="#f9d725" d="M 280.5,0.5 C 280.5,0.166667 280.5,-0.166667 280.5,-0.5C 285.167,-0.5 289.833,-0.5 294.5,-0.5C 294.5,-0.166667 294.5,0.166667 294.5,0.5C 293.501,82.3316 293.167,164.332 293.5,246.5C 289.5,246.5 285.5,246.5 281.5,246.5C 281.833,164.332 281.499,82.3316 280.5,0.5 Z"/></g>
<g><path style="opacity:1" fill="#f9d725" d="M 331.5,-0.5 C 340.5,-0.5 349.5,-0.5 358.5,-0.5C 358.5,-0.166667 358.5,0.166667 358.5,0.5C 357.501,82.3316 357.167,164.332 357.5,246.5C 348.833,246.5 340.167,246.5 331.5,246.5C 331.5,164.167 331.5,81.8333 331.5,-0.5 Z"/></g>
<g><path style="opacity:1" fill="#f9d725" d="M 394.5,0.5 C 394.5,0.166667 394.5,-0.166667 394.5,-0.5C 399.5,-0.5 404.5,-0.5 409.5,-0.5C 409.5,-0.166667 409.5,0.166667 409.5,0.5C 408.501,82.3316 408.167,164.332 408.5,246.5C 404.167,246.5 399.833,246.5 395.5,246.5C 395.833,164.332 395.499,82.3316 394.5,0.5 Z"/></g>
<g><path style="opacity:0.314" fill="#debf23" d="M 280.5,0.5 C 281.499,82.3316 281.833,164.332 281.5,246.5C 285.5,246.5 289.5,246.5 293.5,246.5C 293.167,164.332 293.501,82.3316 294.5,0.5C 294.5,83.1667 294.5,165.833 294.5,248.5C 289.833,248.5 285.167,248.5 280.5,248.5C 280.5,165.833 280.5,83.1667 280.5,0.5 Z"/></g>
<g><path style="opacity:0.137" fill="#1590ba" d="M 103.5,0.5 C 103.5,83.1667 103.5,165.833 103.5,248.5C 94.1045,249.138 85.1045,248.471 76.5,246.5C 85.1667,246.5 93.8333,246.5 102.5,246.5C 102.167,164.332 102.501,82.3316 103.5,0.5 Z"/></g>
<g><path style="opacity:0.039" fill="#136581" d="M 65.5,0.5 C 65.5,83.1667 65.5,165.833 65.5,248.5C 51.7914,249.148 38.4581,248.481 25.5,246.5C 38.5,246.5 51.5,246.5 64.5,246.5C 64.1674,164.332 64.5007,82.3316 65.5,0.5 Z"/></g>
<g><path style="opacity:0.133" fill="#1590ba" d="M 205.5,0.5 C 205.5,83.1667 205.5,165.833 205.5,248.5C 196.105,249.138 187.105,248.471 178.5,246.5C 187.167,246.5 195.833,246.5 204.5,246.5C 204.167,164.332 204.501,82.3316 205.5,0.5 Z"/></g>
<g><path style="opacity:0.141" fill="#b69e20" d="M 394.5,0.5 C 395.499,82.3316 395.833,164.332 395.5,246.5C 399.833,246.5 404.167,246.5 408.5,246.5C 408.167,164.332 408.501,82.3316 409.5,0.5C 409.5,83.1667 409.5,165.833 409.5,248.5C 404.5,248.5 399.5,248.5 394.5,248.5C 394.5,165.833 394.5,83.1667 394.5,0.5 Z"/></g>
<g><path style="opacity:0.161" fill="#0e8eb8" d="M -0.5,0.5 C 0.499316,82.3316 0.83265,164.332 0.5,246.5C 4.83333,246.5 9.16667,246.5 13.5,246.5C 13.1674,164.332 13.5007,82.3316 14.5,0.5C 14.5,83.1667 14.5,165.833 14.5,248.5C 9.5,248.5 4.5,248.5 -0.5,248.5C -0.5,165.833 -0.5,83.1667 -0.5,0.5 Z"/></g>
<g><path style="opacity:0.133" fill="#b89f20" d="M 358.5,0.5 C 358.5,83.1667 358.5,165.833 358.5,248.5C 349.105,249.138 340.105,248.471 331.5,246.5C 340.167,246.5 348.833,246.5 357.5,246.5C 357.167,164.332 357.501,82.3316 358.5,0.5 Z"/></g>
<g><path style="opacity:0.041" fill="#117090" d="M 139.5,0.5 C 140.499,82.3316 140.833,164.332 140.5,246.5C 149.167,246.5 157.833,246.5 166.5,246.5C 166.167,164.332 166.501,82.3316 167.5,0.5C 167.5,83.1667 167.5,165.833 167.5,248.5C 158.167,248.5 148.833,248.5 139.5,248.5C 139.5,165.833 139.5,83.1667 139.5,0.5 Z"/></g>
<g><path style="opacity:0.055" fill="#162a34" d="M 268.5,-0.5 C 268.833,-0.5 269.167,-0.5 269.5,-0.5C 269.5,82.5 269.5,165.5 269.5,248.5C 251.659,248.83 233.992,248.497 216.5,247.5C 233.833,247.5 251.167,247.5 268.5,247.5C 268.5,164.833 268.5,82.1667 268.5,-0.5 Z"/></g>
<g><path style="opacity:0.985" fill="#0cbdf6" d="M 73.5,345.5 C 71.3298,346.768 69.1632,346.768 67,345.5C 60.922,333.01 54.5887,320.677 48,308.5C 47.1708,329.004 47.3374,349.337 48.5,369.5C 48.5,373.833 48.5,378.167 48.5,382.5C 44.5,382.5 40.5,382.5 36.5,382.5C 36.5,349.167 36.5,315.833 36.5,282.5C 40.226,282.177 43.8927,282.511 47.5,283.5C 54.8233,298.815 62.6567,313.815 71,328.5C 78.9221,313.656 86.5888,298.656 94,283.5C 97.3936,282.544 100.894,282.211 104.5,282.5C 104.5,315.833 104.5,349.167 104.5,382.5C 100.5,382.5 96.5,382.5 92.5,382.5C 92.6666,358.831 92.5,335.164 92,311.5C 86.0591,323.055 79.8925,334.388 73.5,345.5 Z"/></g>
<g><path style="opacity:0.95" fill="#eccb25" d="M 335.5,380.5 C 331.5,380.5 327.5,380.5 323.5,380.5C 323.5,348.5 323.5,316.5 323.5,284.5C 342.471,282.512 361.804,281.846 381.5,282.5C 381.5,286.5 381.5,290.5 381.5,294.5C 366.167,294.5 350.833,294.5 335.5,294.5C 335.5,303.833 335.5,313.167 335.5,322.5C 347.833,322.5 360.167,322.5 372.5,322.5C 372.5,326.5 372.5,330.5 372.5,334.5C 360.167,334.5 347.833,334.5 335.5,334.5C 335.5,349.833 335.5,365.167 335.5,380.5 Z"/></g>
<g><path style="opacity:0.972" fill="#0fb9f1" d="M 205.5,404.5 C 197.145,408.956 188.478,409.623 179.5,406.5C 179.027,405.094 178.027,404.427 176.5,404.5C 176.167,403.5 175.5,402.833 174.5,402.5C 174.062,402.565 173.728,402.399 173.5,402C 175.425,398.282 177.925,395.116 181,392.5C 185.913,397.684 191.746,398.851 198.5,396C 202.519,391.631 205.519,386.631 207.5,381C 197.212,357.306 187.212,333.472 177.5,309.5C 182.167,308.167 186.833,308.167 191.5,309.5C 198.39,327.612 205.556,345.612 213,363.5C 219.147,345.726 224.481,327.726 229,309.5C 233.401,308.533 237.901,308.2 242.5,308.5C 234.095,339.547 223.595,369.881 211,399.5C 209.588,401.686 207.755,403.352 205.5,404.5 Z"/></g>
<g><path style="opacity:0.259" fill="#217ea2" d="M 73.5,345.5 C 73.5858,346.496 73.2524,347.329 72.5,348C 70.4213,348.808 68.4213,348.641 66.5,347.5C 60.6667,335.833 54.8333,324.167 49,312.5C 48.5001,331.497 48.3334,350.497 48.5,369.5C 47.3374,349.337 47.1708,329.004 48,308.5C 54.5887,320.677 60.922,333.01 67,345.5C 69.1632,346.768 71.3298,346.768 73.5,345.5 Z"/></g>
<g><path style="opacity:0.31" fill="#3f3616" d="M 323.5,284.5 C 323.5,316.5 323.5,348.5 323.5,380.5C 327.5,380.5 331.5,380.5 335.5,380.5C 333.952,381.794 331.952,382.461 329.5,382.5C 327.241,382.468 325.075,382.134 323,381.5C 322.169,348.997 322.336,316.664 323.5,284.5 Z"/></g>
<g><path style="opacity:0.004" fill="#1f0a06" d="M 174.5,402.5 C 175.5,402.833 176.167,403.5 176.5,404.5C 175.167,404.5 174.5,403.833 174.5,402.5 Z"/></g>
<g><path style="opacity:0.059" fill="#110e12" d="M 176.5,404.5 C 178.027,404.427 179.027,405.094 179.5,406.5C 177.973,406.573 176.973,405.906 176.5,404.5 Z"/></g>
<g><path style="opacity:0.044" fill="#0f0708" d="M 205.5,404.5 C 203.137,406.68 200.47,408.347 197.5,409.5C 193.167,409.5 188.833,409.5 184.5,409.5C 182.739,408.687 181.072,407.687 179.5,406.5C 188.478,409.623 197.145,408.956 205.5,404.5 Z"/></g>
</svg>
