<svg width="41" height="19" viewBox="0 0 41 19" fill="none" xmlns="http://www.w3.org/2000/svg">
<path d="M0.742188 1.78906H3.21875L7.65625 6.24219L12.0938 1.78906H14.5703V14H12.0938V5.21875L7.65625 9.49219L3.21875 5.21875V14H0.742188V1.78906ZM19.7394 15.1562C19.979 15.3125 20.2394 15.4505 20.5206 15.5703C20.8019 15.6901 21.0935 15.7891 21.3956 15.8672C21.7029 15.9453 22.0154 16.0026 22.3331 16.0391C22.6508 16.0807 22.9659 16.1016 23.2784 16.1016C24.3409 16.1016 25.1586 15.8724 25.7316 15.4141C26.3097 14.9609 26.5987 14.2786 26.5987 13.3672V13.0547C26.3956 13.1953 26.1665 13.3255 25.9112 13.4453C25.6612 13.5599 25.3904 13.6589 25.0987 13.7422C24.8123 13.8255 24.5076 13.8906 24.1847 13.9375C23.867 13.9792 23.5441 14 23.2159 14C22.5128 14 21.8826 13.8984 21.3253 13.6953C20.7732 13.487 20.3045 13.1849 19.9191 12.7891C19.5389 12.388 19.2472 11.8958 19.0441 11.3125C18.8409 10.7292 18.7394 10.0625 18.7394 9.3125V4.78125H21.0441V8.67188C21.0441 9.78646 21.255 10.6094 21.6769 11.1406C22.104 11.6667 22.7758 11.9297 23.6925 11.9297C24.3383 11.9297 24.9086 11.8177 25.4034 11.5938C25.9034 11.3646 26.3019 11.0729 26.5987 10.7188V4.78125H28.9112V12.9453C28.9112 13.8255 28.7862 14.5885 28.5362 15.2344C28.2862 15.8854 27.9217 16.4245 27.4425 16.8516C26.9685 17.2786 26.3852 17.5964 25.6925 17.8047C24.9998 18.0182 24.2133 18.125 23.3331 18.125C22.4737 18.125 21.6717 18.0339 20.9269 17.8516C20.1821 17.6693 19.4998 17.4219 18.88 17.1094L19.7394 15.1562ZM33.7912 6.51562H32.2131V4.78125H33.7912C33.7912 4.15625 33.8798 3.60156 34.0569 3.11719C34.234 2.6276 34.4892 2.21615 34.8225 1.88281C35.161 1.54427 35.5699 1.28646 36.0491 1.10938C36.5334 0.932292 37.0777 0.84375 37.6819 0.84375C38.1037 0.84375 38.5178 0.885417 38.9241 0.96875C39.3303 1.04688 39.6897 1.16146 40.0022 1.3125L39.1819 3.25781C39.0569 3.1849 38.8798 3.11719 38.6506 3.05469C38.4267 2.99219 38.1793 2.96094 37.9084 2.96094C37.3772 2.96094 36.9475 3.11198 36.6194 3.41406C36.2965 3.71094 36.1246 4.16667 36.1037 4.78125H39.0178V6.51562H36.1037V14H33.7912V6.51562Z" fill="white"/>
</svg>
