<svg width="737" height="325" viewBox="0 0 737 325" fill="none" xmlns="http://www.w3.org/2000/svg">
<path d="M0.666016 18.0449H47.1016L130.305 101.541L213.508 18.0449H259.943V247H213.508V82.3516L130.305 162.479L47.1016 82.3516V247H0.666016V18.0449ZM356.863 268.68C361.355 271.609 366.238 274.197 371.512 276.443C376.785 278.689 382.254 280.545 387.918 282.01C393.68 283.475 399.539 284.549 405.496 285.232C411.453 286.014 417.361 286.404 423.221 286.404C443.143 286.404 458.475 282.107 469.217 273.514C480.057 265.018 485.477 252.225 485.477 235.135V229.275C481.668 231.912 477.371 234.354 472.586 236.6C467.898 238.748 462.82 240.604 457.352 242.166C451.98 243.729 446.268 244.949 440.213 245.828C434.256 246.609 428.201 247 422.049 247C408.865 247 397.049 245.096 386.6 241.287C376.248 237.381 367.459 231.717 360.232 224.295C353.104 216.775 347.635 207.547 343.826 196.609C340.018 185.672 338.113 173.172 338.113 159.109V74.1484H381.326V147.098C381.326 167.996 385.281 183.426 393.191 193.387C401.199 203.25 413.797 208.182 430.984 208.182C443.094 208.182 453.787 206.082 463.064 201.883C472.439 197.586 479.91 192.117 485.477 185.477V74.1484H528.836V227.225C528.836 243.729 526.492 258.035 521.805 270.145C517.117 282.352 510.281 292.459 501.297 300.467C492.41 308.475 481.473 314.432 468.484 318.338C455.496 322.342 440.75 324.344 424.246 324.344C408.133 324.344 393.094 322.635 379.129 319.217C365.164 315.799 352.371 311.16 340.75 305.301L356.863 268.68ZM620.336 106.668H590.746V74.1484H620.336C620.336 62.4297 621.996 52.0293 625.316 42.9473C628.637 33.7676 633.422 26.0527 639.672 19.8027C646.02 13.4551 653.686 8.62109 662.67 5.30078C671.752 1.98047 681.957 0.320312 693.285 0.320312C701.195 0.320312 708.959 1.10156 716.576 2.66406C724.193 4.12891 730.932 6.27734 736.791 9.10938L721.41 45.584C719.066 44.2168 715.746 42.9473 711.449 41.7754C707.25 40.6035 702.611 40.0176 697.533 40.0176C687.572 40.0176 679.516 42.8496 673.363 48.5137C667.309 54.0801 664.086 62.625 663.695 74.1484H718.334V106.668H663.695V247H620.336V106.668Z" fill="black"/>
</svg>
